<svg width="14" height="14" viewBox="0 0 14 14" fill="none" xmlns="http://www.w3.org/2000/svg">
<path d="M3.32463 10.6899L0.731689 9.43027L1.24771 8.91425L3.34225 9.20591L6.71725 5.85175L0.755731 2.54727L1.52494 1.7492L8.81661 3.72677L11.5121 1.00725C11.7108 0.808537 11.9538 0.709183 12.2412 0.709183C12.5286 0.709183 12.7717 0.808537 12.9704 1.00725C13.1691 1.20597 13.2685 1.45036 13.2685 1.74041C13.2685 2.03047 13.1691 2.27486 12.9704 2.47358L10.2749 5.18508L12.2653 12.4687L11.4753 13.2668L8.16275 7.30525L4.82461 10.6642L5.10825 12.7668L4.58423 13.2908L3.32463 10.6899Z" fill="#0A1D3D"/>
</svg>
